<?xml version="1.0" encoding="UTF-8"?>
<!DOCTYPE svg PUBLIC "-//W3C//DTD SVG 1.1//EN" "http://www.w3.org/Graphics/SVG/1.1/DTD/svg11.dtd">
<svg version="1.1" xmlns="http://www.w3.org/2000/svg" xmlns:xlink="http://www.w3.org/1999/xlink" x="0" y="0" width="512" height="512" viewBox="0, 0, 512, 512">
  <g id="calendar">
    <g>
      <path d="M121.014,87.455 C121.014,95.223 114.719,101.518 106.962,101.518 L101.2,101.518 C93.431,101.518 87.137,95.223 87.137,87.455 L87.137,37.552 C87.137,29.795 93.431,23.5 101.2,23.5 L106.962,23.5 C114.719,23.5 121.014,29.795 121.014,37.552 L121.014,87.455 z" fill="#FFFFFF"/>
      <path d="M462.732,53.271 L453.602,53.271 L453.602,87.92 C453.602,105.363 439.176,119.993 421.733,119.993 L415.881,119.993 C398.449,119.993 383.796,105.363 383.796,87.92 L383.796,53.271 L138.468,53.271 L138.468,87.92 C138.468,105.363 124.099,119.993 106.667,119.993 L100.803,119.993 C83.372,119.993 69.694,105.363 69.694,87.92 L69.694,53.271 L49.268,53.271 C23.5,53.271 1.94,73.867 1.94,99.635 L1.94,441.648 C1.94,467.416 23.5,488.5 49.268,488.5 L462.732,488.5 C488.5,488.5 510.06,467.416 510.06,441.648 L510.06,99.635 C510.06,73.867 488.5,53.271 462.732,53.271 z M474.13,441.648 C474.13,448 469.083,453.602 462.732,453.602 L49.268,453.602 C42.917,453.602 37.87,448 37.87,441.648 L37.87,175.419 L474.13,175.419 L474.13,441.648 z" fill="#FFFFFF"/>
      <path d="M436.148,87.455 C436.148,95.223 429.853,101.518 422.096,101.518 L416.334,101.518 C408.565,101.518 402.271,95.223 402.271,87.455 L402.271,37.552 C402.271,29.795 408.565,23.5 416.334,23.5 L422.096,23.5 C429.853,23.5 436.148,29.795 436.148,37.552 L436.148,87.455 z" fill="#FFFFFF"/>
      <g>
        <path d="M104.91,417.74 L104.91,400.729 L126.647,379.618 C178.96,329.825 202.59,303.362 202.916,272.486 C202.916,251.676 192.825,232.458 162.249,232.458 C143.658,232.458 128.227,241.91 118.762,249.783 L109.949,230.252 C124.127,218.28 144.285,209.455 167.928,209.455 C212.042,209.455 230.633,239.704 230.633,269.001 C230.633,306.822 203.23,337.385 160.056,378.979 L143.658,394.11 L143.658,394.749 L235.673,394.749 L235.673,417.74 L104.91,417.74 z" fill="#FFFFFF"/>
        <path d="M352.258,417.74 L352.258,361.968 L257.097,361.968 L257.097,343.69 L348.484,212.914 L378.421,212.914 L378.421,340.23 L407.09,340.23 L407.09,361.968 L378.421,361.968 L378.421,417.74 L352.258,417.74 z M352.258,340.23 L352.258,271.846 C352.258,261.141 352.571,250.41 353.211,239.704 L352.258,239.704 C345.952,251.676 340.913,260.501 335.246,269.953 L285.14,339.603 L285.14,340.23 L352.258,340.23 z" fill="#FFFFFF"/>
      </g>
    </g>
  </g>
</svg>
