<?xml version="1.0" encoding="UTF-8"?>
<!DOCTYPE svg PUBLIC "-//W3C//DTD SVG 1.1//EN" "http://www.w3.org/Graphics/SVG/1.1/DTD/svg11.dtd">
<svg version="1.1" xmlns="http://www.w3.org/2000/svg" xmlns:xlink="http://www.w3.org/1999/xlink" x="0" y="0" width="83" height="82" viewBox="0, 0, 83, 82">
  <defs>
    <linearGradient id="Gradient_1" gradientUnits="userSpaceOnUse" x1="17.483" y1="7.415" x2="64.517" y2="74.585" gradientTransform="matrix(-1, 0, 0, 1, 82.912, 0)">
      <stop offset="0" stop-color="#00086C" stop-opacity="0.959"/>
      <stop offset="1" stop-color="#0088EC"/>
    </linearGradient>
  </defs>
  <g id="Page-1">
    <path d="M0.912,41 C0.912,63.644 19.268,82 41.912,82 C64.556,82 82.912,63.644 82.912,41 C82.912,18.356 64.556,0 41.912,0 C19.268,0 0.912,18.356 0.912,41 z" fill="url(#Gradient_1)" id="Oval-1"/>
    <path d="M30.01,26.139 C30.01,26.824 29.455,27.379 28.771,27.379 L28.263,27.379 C27.578,27.379 27.023,26.824 27.023,26.139 L27.023,21.739 C27.023,21.055 27.578,20.5 28.263,20.5 L28.771,20.5 C29.455,20.5 30.01,21.055 30.01,21.739 L30.01,26.139 z" fill="#FFFFFF"/>
    <path d="M60.14,23.125 L59.335,23.125 L59.335,26.18 C59.335,27.718 58.063,29.008 56.525,29.008 L56.009,29.008 C54.472,29.008 53.18,27.718 53.18,26.18 L53.18,23.125 L31.549,23.125 L31.549,26.18 C31.549,27.718 30.282,29.008 28.745,29.008 L28.228,29.008 C26.691,29.008 25.485,27.718 25.485,26.18 L25.485,23.125 L23.684,23.125 C21.412,23.125 19.511,24.941 19.511,27.213 L19.511,57.369 C19.511,59.641 21.412,61.5 23.684,61.5 L60.14,61.5 C62.412,61.5 64.313,59.641 64.313,57.369 L64.313,27.213 C64.313,24.941 62.412,23.125 60.14,23.125 z M61.145,57.369 C61.145,57.929 60.7,58.423 60.14,58.423 L23.684,58.423 C23.124,58.423 22.679,57.929 22.679,57.369 L22.679,33.895 L61.145,33.895 L61.145,57.369 z" fill="#FFFFFF"/>
    <path d="M57.796,26.139 C57.796,26.824 57.241,27.379 56.557,27.379 L56.049,27.379 C55.364,27.379 54.809,26.824 54.809,26.139 L54.809,21.739 C54.809,21.055 55.364,20.5 56.049,20.5 L56.557,20.5 C57.241,20.5 57.796,21.055 57.796,21.739 L57.796,26.139 z" fill="#FFFFFF"/>
    <g>
      <path d="M28.59,55.261 L28.59,53.761 L30.507,51.9 C35.119,47.509 37.203,45.176 37.231,42.454 C37.231,40.619 36.342,38.924 33.646,38.924 C32.007,38.924 30.646,39.758 29.811,40.452 L29.034,38.73 C30.285,37.674 32.062,36.896 34.147,36.896 C38.036,36.896 39.675,39.563 39.675,42.146 C39.675,45.481 37.259,48.176 33.452,51.843 L32.007,53.177 L32.007,53.234 L40.12,53.234 L40.12,55.261 L28.59,55.261 z" fill="#FFFFFF"/>
      <path d="M50.399,55.261 L50.399,50.343 L42.009,50.343 L42.009,48.732 L50.067,37.201 L52.706,37.201 L52.706,48.427 L55.234,48.427 L55.234,50.343 L52.706,50.343 L52.706,55.261 L50.399,55.261 z M50.399,48.427 L50.399,42.397 C50.399,41.453 50.427,40.507 50.483,39.563 L50.399,39.563 C49.843,40.619 49.399,41.397 48.899,42.23 L44.481,48.371 L44.481,48.427 L50.399,48.427 z" fill="#FFFFFF"/>
    </g>
  </g>
</svg>
